<mxfile host="65bd71144e">
    <diagram id="haAfaiuXtMIDnuxm7Wr7" name="第 1 页">
        <mxGraphModel dx="948" dy="469" grid="1" gridSize="10" guides="1" tooltips="1" connect="1" arrows="1" fold="1" page="1" pageScale="1" pageWidth="827" pageHeight="1169" math="0" shadow="0">
            <root>
                <mxCell id="0"/>
                <mxCell id="1" parent="0"/>
                <mxCell id="2" value="&lt;font style=&quot;font-size: 16px&quot;&gt;Kubernetes 集群&lt;/font&gt;" style="rounded=0;whiteSpace=wrap;html=1;fillColor=#dae8fc;strokeColor=#6c8ebf;" parent="1" vertex="1">
                    <mxGeometry x="38.5" y="501" width="750" height="39" as="geometry"/>
                </mxCell>
                <mxCell id="5" value="" style="rounded=0;whiteSpace=wrap;html=1;fontSize=18;fillColor=#d5e8d4;strokeColor=#82b366;" parent="1" vertex="1">
                    <mxGeometry x="38.5" y="395" width="751" height="95" as="geometry"/>
                </mxCell>
                <mxCell id="6" value="快速创建联盟链" style="text;html=1;strokeColor=none;fillColor=none;align=left;verticalAlign=middle;whiteSpace=wrap;rounded=0;fontSize=16;" parent="1" vertex="1">
                    <mxGeometry x="49.5" y="428" width="70" height="30" as="geometry"/>
                </mxCell>
                <mxCell id="7" value="Fabric" style="rounded=0;whiteSpace=wrap;html=1;fontSize=14;" parent="1" vertex="1">
                    <mxGeometry x="139.5" y="408" width="90" height="30" as="geometry"/>
                </mxCell>
                <mxCell id="8" value="多底链支持" style="rounded=0;whiteSpace=wrap;html=1;fontSize=16;" parent="1" vertex="1">
                    <mxGeometry x="139.5" y="448" width="290" height="30" as="geometry"/>
                </mxCell>
                <mxCell id="9" value="多种共识机制支持" style="rounded=0;whiteSpace=wrap;html=1;fontSize=16;" parent="1" vertex="1">
                    <mxGeometry x="459.5" y="448" width="290" height="30" as="geometry"/>
                </mxCell>
                <mxCell id="10" value="BCOS" style="rounded=0;whiteSpace=wrap;html=1;fontSize=14;" vertex="1" parent="1">
                    <mxGeometry x="339.5" y="408" width="90" height="30" as="geometry"/>
                </mxCell>
                <mxCell id="11" value="长安链" style="rounded=0;whiteSpace=wrap;html=1;fontSize=14;" vertex="1" parent="1">
                    <mxGeometry x="239.5" y="408" width="90" height="30" as="geometry"/>
                </mxCell>
                <mxCell id="12" value="Raft" style="rounded=0;whiteSpace=wrap;html=1;fontSize=14;" vertex="1" parent="1">
                    <mxGeometry x="459.5" y="408" width="90" height="30" as="geometry"/>
                </mxCell>
                <mxCell id="13" value="PoS" style="rounded=0;whiteSpace=wrap;html=1;fontSize=14;" vertex="1" parent="1">
                    <mxGeometry x="659.5" y="408" width="90" height="30" as="geometry"/>
                </mxCell>
                <mxCell id="14" value="PoA" style="rounded=0;whiteSpace=wrap;html=1;fontSize=14;" vertex="1" parent="1">
                    <mxGeometry x="559.5" y="408" width="90" height="30" as="geometry"/>
                </mxCell>
                <mxCell id="16" value="" style="rounded=0;whiteSpace=wrap;html=1;fontSize=14;fillColor=#d5e8d4;strokeColor=#82b366;" vertex="1" parent="1">
                    <mxGeometry x="38.5" y="260" width="421" height="120" as="geometry"/>
                </mxCell>
                <mxCell id="18" value="" style="rounded=0;whiteSpace=wrap;html=1;fontSize=14;fillColor=#d5e8d4;strokeColor=#82b366;" vertex="1" parent="1">
                    <mxGeometry x="469.5" y="260" width="320" height="120" as="geometry"/>
                </mxCell>
                <mxCell id="19" value="区块链网络管理" style="text;html=1;strokeColor=none;fillColor=none;align=center;verticalAlign=middle;whiteSpace=wrap;rounded=0;fontSize=16;" vertex="1" parent="1">
                    <mxGeometry x="169" y="345" width="160" height="30" as="geometry"/>
                </mxCell>
                <mxCell id="20" value="组织管理" style="rounded=0;whiteSpace=wrap;html=1;fontSize=14;" vertex="1" parent="1">
                    <mxGeometry x="54" y="269" width="90" height="30" as="geometry"/>
                </mxCell>
                <mxCell id="21" value="证书管理" style="rounded=0;whiteSpace=wrap;html=1;fontSize=14;" vertex="1" parent="1">
                    <mxGeometry x="254" y="269" width="90" height="30" as="geometry"/>
                </mxCell>
                <mxCell id="22" value="通道管理" style="rounded=0;whiteSpace=wrap;html=1;fontSize=14;" vertex="1" parent="1">
                    <mxGeometry x="154" y="269" width="90" height="30" as="geometry"/>
                </mxCell>
                <mxCell id="23" value="合约管理" style="rounded=0;whiteSpace=wrap;html=1;fontSize=14;" vertex="1" parent="1">
                    <mxGeometry x="354" y="269" width="90" height="30" as="geometry"/>
                </mxCell>
                <mxCell id="24" value="策略管理" style="rounded=0;whiteSpace=wrap;html=1;fontSize=14;" vertex="1" parent="1">
                    <mxGeometry x="54" y="309" width="90" height="30" as="geometry"/>
                </mxCell>
                <mxCell id="25" value="共识管理" style="rounded=0;whiteSpace=wrap;html=1;fontSize=14;" vertex="1" parent="1">
                    <mxGeometry x="254" y="309" width="90" height="30" as="geometry"/>
                </mxCell>
                <mxCell id="26" value="执行引擎" style="rounded=0;whiteSpace=wrap;html=1;fontSize=14;" vertex="1" parent="1">
                    <mxGeometry x="154" y="309" width="90" height="30" as="geometry"/>
                </mxCell>
                <mxCell id="27" value="区块链浏览器" style="rounded=0;whiteSpace=wrap;html=1;fontSize=14;" vertex="1" parent="1">
                    <mxGeometry x="354" y="309" width="90" height="30" as="geometry"/>
                </mxCell>
                <mxCell id="30" value="事件管理" style="rounded=0;whiteSpace=wrap;html=1;fontSize=14;" vertex="1" parent="1">
                    <mxGeometry x="485.5" y="269" width="90" height="30" as="geometry"/>
                </mxCell>
                <mxCell id="31" value="消息管理" style="rounded=0;whiteSpace=wrap;html=1;fontSize=14;" vertex="1" parent="1">
                    <mxGeometry x="585.5" y="269" width="90" height="30" as="geometry"/>
                </mxCell>
                <mxCell id="32" value="运维管理" style="text;html=1;strokeColor=none;fillColor=none;align=center;verticalAlign=middle;whiteSpace=wrap;rounded=0;fontSize=16;" vertex="1" parent="1">
                    <mxGeometry x="580.5" y="345" width="100" height="30" as="geometry"/>
                </mxCell>
                <mxCell id="34" value="数据管理" style="rounded=0;whiteSpace=wrap;html=1;fontSize=14;" vertex="1" parent="1">
                    <mxGeometry x="685.5" y="269" width="90" height="30" as="geometry"/>
                </mxCell>
                <mxCell id="35" value="安全机制" style="rounded=0;whiteSpace=wrap;html=1;fontSize=14;" vertex="1" parent="1">
                    <mxGeometry x="485.5" y="309" width="90" height="30" as="geometry"/>
                </mxCell>
                <mxCell id="36" value="ChainIDE" style="rounded=0;whiteSpace=wrap;html=1;fontSize=14;" vertex="1" parent="1">
                    <mxGeometry x="585.5" y="309" width="90" height="30" as="geometry"/>
                </mxCell>
                <mxCell id="37" value="治理审计" style="rounded=0;whiteSpace=wrap;html=1;fontSize=14;" vertex="1" parent="1">
                    <mxGeometry x="685.5" y="309" width="90" height="30" as="geometry"/>
                </mxCell>
                <mxCell id="48" value="" style="rounded=0;whiteSpace=wrap;html=1;fontSize=14;fillColor=#d5e8d4;strokeColor=#82b366;" vertex="1" parent="1">
                    <mxGeometry x="38" y="190" width="750.5" height="55" as="geometry"/>
                </mxCell>
                <mxCell id="49" value="接入层" style="text;html=1;strokeColor=none;fillColor=none;align=left;verticalAlign=middle;whiteSpace=wrap;rounded=0;fontSize=16;" vertex="1" parent="1">
                    <mxGeometry x="50" y="202.5" width="90" height="30" as="geometry"/>
                </mxCell>
                <mxCell id="50" value="请求转发" style="rounded=0;whiteSpace=wrap;html=1;fontSize=14;spacing=2;spacingLeft=0;" vertex="1" parent="1">
                    <mxGeometry x="154.5" y="202.5" width="90" height="30" as="geometry"/>
                </mxCell>
                <mxCell id="51" value="鉴权" style="rounded=0;whiteSpace=wrap;html=1;fontSize=14;spacing=2;spacingLeft=0;" vertex="1" parent="1">
                    <mxGeometry x="368" y="202.5" width="90" height="30" as="geometry"/>
                </mxCell>
                <mxCell id="52" value="限流" style="rounded=0;whiteSpace=wrap;html=1;fontSize=14;spacing=2;spacingLeft=0;" vertex="1" parent="1">
                    <mxGeometry x="262.5" y="202.5" width="90" height="30" as="geometry"/>
                </mxCell>
                <mxCell id="53" value="告警" style="rounded=0;whiteSpace=wrap;html=1;fontSize=14;spacing=2;spacingLeft=0;" vertex="1" parent="1">
                    <mxGeometry x="475" y="202.5" width="90" height="30" as="geometry"/>
                </mxCell>
                <mxCell id="54" value="链路追踪" style="rounded=0;whiteSpace=wrap;html=1;fontSize=14;spacing=2;spacingLeft=0;" vertex="1" parent="1">
                    <mxGeometry x="582" y="202.5" width="90" height="30" as="geometry"/>
                </mxCell>
                <mxCell id="55" value="熔断" style="rounded=0;whiteSpace=wrap;html=1;fontSize=14;spacing=2;spacingLeft=0;" vertex="1" parent="1">
                    <mxGeometry x="686" y="202.5" width="90" height="30" as="geometry"/>
                </mxCell>
                <mxCell id="56" value="" style="rounded=0;whiteSpace=wrap;html=1;fontSize=14;fillColor=#fff2cc;strokeColor=#d6b656;" vertex="1" parent="1">
                    <mxGeometry x="37.75" y="120" width="750.5" height="55" as="geometry"/>
                </mxCell>
                <mxCell id="57" value="应用场景" style="text;html=1;strokeColor=none;fillColor=none;align=left;verticalAlign=middle;whiteSpace=wrap;rounded=0;fontSize=16;" vertex="1" parent="1">
                    <mxGeometry x="49.75" y="132.5" width="90" height="30" as="geometry"/>
                </mxCell>
                <mxCell id="58" value="数字藏品" style="rounded=0;whiteSpace=wrap;html=1;fontSize=14;spacing=2;spacingLeft=0;" vertex="1" parent="1">
                    <mxGeometry x="154.25" y="132.5" width="90" height="30" as="geometry"/>
                </mxCell>
                <mxCell id="59" value="供应链金融" style="rounded=0;whiteSpace=wrap;html=1;fontSize=14;spacing=2;spacingLeft=0;" vertex="1" parent="1">
                    <mxGeometry x="367.75" y="132.5" width="90" height="30" as="geometry"/>
                </mxCell>
                <mxCell id="60" value="区块链合同" style="rounded=0;whiteSpace=wrap;html=1;fontSize=14;spacing=2;spacingLeft=0;" vertex="1" parent="1">
                    <mxGeometry x="262.25" y="132.5" width="90" height="30" as="geometry"/>
                </mxCell>
                <mxCell id="61" value="Web3社交" style="rounded=0;whiteSpace=wrap;html=1;fontSize=14;spacing=2;spacingLeft=0;" vertex="1" parent="1">
                    <mxGeometry x="474.75" y="132.5" width="90" height="30" as="geometry"/>
                </mxCell>
                <mxCell id="62" value="身份合约" style="rounded=0;whiteSpace=wrap;html=1;fontSize=14;spacing=2;spacingLeft=0;" vertex="1" parent="1">
                    <mxGeometry x="581.75" y="132.5" width="90" height="30" as="geometry"/>
                </mxCell>
                <mxCell id="63" value="可信存证" style="rounded=0;whiteSpace=wrap;html=1;fontSize=14;spacing=2;spacingLeft=0;" vertex="1" parent="1">
                    <mxGeometry x="685.75" y="132.5" width="90" height="30" as="geometry"/>
                </mxCell>
            </root>
        </mxGraphModel>
    </diagram>
</mxfile>